<mxfile host="app.diagrams.net" modified="2023-02-14T09:06:35.057Z" agent="5.0 (Macintosh; Intel Mac OS X 10_15_7) AppleWebKit/537.36 (KHTML, like Gecko) Chrome/109.0.0.0 Safari/537.36" etag="XzFeAvexefe_0BgBLR8r" version="20.8.17" type="github">
  <diagram name="第 1 页" id="pH_MFiOTjgAfJyfki7x9">
    <mxGraphModel dx="1242" dy="795" grid="1" gridSize="10" guides="1" tooltips="1" connect="1" arrows="1" fold="1" page="1" pageScale="1" pageWidth="827" pageHeight="1169" math="0" shadow="0">
      <root>
        <mxCell id="0" />
        <mxCell id="1" parent="0" />
        <mxCell id="8LNskPU4K8F9wqnniEPM-13" value="" style="rounded=0;whiteSpace=wrap;html=1;" vertex="1" parent="1">
          <mxGeometry x="50" y="600" width="500" height="120" as="geometry" />
        </mxCell>
        <mxCell id="8LNskPU4K8F9wqnniEPM-18" style="edgeStyle=orthogonalEdgeStyle;rounded=0;orthogonalLoop=1;jettySize=auto;html=1;" edge="1" parent="1" target="8LNskPU4K8F9wqnniEPM-17">
          <mxGeometry relative="1" as="geometry">
            <mxPoint x="300" y="560" as="sourcePoint" />
            <Array as="points">
              <mxPoint x="275" y="560" />
            </Array>
          </mxGeometry>
        </mxCell>
        <mxCell id="8LNskPU4K8F9wqnniEPM-1" value="" style="rounded=0;whiteSpace=wrap;html=1;" vertex="1" parent="1">
          <mxGeometry x="50" y="180" width="500" height="380" as="geometry" />
        </mxCell>
        <mxCell id="8LNskPU4K8F9wqnniEPM-2" value="app-web" style="text;html=1;align=center;verticalAlign=middle;resizable=0;points=[];autosize=1;strokeColor=none;fillColor=none;" vertex="1" parent="1">
          <mxGeometry x="265" y="190" width="70" height="30" as="geometry" />
        </mxCell>
        <mxCell id="8LNskPU4K8F9wqnniEPM-3" value="" style="rounded=0;whiteSpace=wrap;html=1;fillColor=#ffe6cc;strokeColor=#d79b00;" vertex="1" parent="1">
          <mxGeometry x="70" y="320" width="420" height="170" as="geometry" />
        </mxCell>
        <mxCell id="8LNskPU4K8F9wqnniEPM-4" value="Microsite" style="rounded=0;whiteSpace=wrap;html=1;fillColor=#f5f5f5;fontColor=#333333;strokeColor=#666666;" vertex="1" parent="1">
          <mxGeometry x="75" y="230" width="120" height="60" as="geometry" />
        </mxCell>
        <mxCell id="8LNskPU4K8F9wqnniEPM-5" value="HelpCenter" style="text;html=1;align=center;verticalAlign=middle;resizable=0;points=[];autosize=1;strokeColor=none;fillColor=none;" vertex="1" parent="1">
          <mxGeometry x="70" y="320" width="80" height="30" as="geometry" />
        </mxCell>
        <mxCell id="8LNskPU4K8F9wqnniEPM-6" value="MiddlePage" style="rounded=0;whiteSpace=wrap;html=1;fillColor=#f5f5f5;fontColor=#333333;strokeColor=#666666;" vertex="1" parent="1">
          <mxGeometry x="220" y="230" width="120" height="60" as="geometry" />
        </mxCell>
        <mxCell id="8LNskPU4K8F9wqnniEPM-7" value="Home" style="rounded=0;whiteSpace=wrap;html=1;fillColor=#fff2cc;strokeColor=#d6b656;" vertex="1" parent="1">
          <mxGeometry x="90" y="350" width="120" height="60" as="geometry" />
        </mxCell>
        <mxCell id="8LNskPU4K8F9wqnniEPM-8" value="Category" style="rounded=0;whiteSpace=wrap;html=1;fillColor=#fff2cc;strokeColor=#d6b656;" vertex="1" parent="1">
          <mxGeometry x="90" y="420" width="120" height="60" as="geometry" />
        </mxCell>
        <mxCell id="8LNskPU4K8F9wqnniEPM-9" value="HotQuestion" style="rounded=0;whiteSpace=wrap;html=1;fillColor=#fff2cc;strokeColor=#d6b656;" vertex="1" parent="1">
          <mxGeometry x="220" y="350" width="120" height="60" as="geometry" />
        </mxCell>
        <mxCell id="8LNskPU4K8F9wqnniEPM-10" value="ArticleDetail" style="rounded=0;whiteSpace=wrap;html=1;fillColor=#fff2cc;strokeColor=#d6b656;" vertex="1" parent="1">
          <mxGeometry x="220" y="420" width="120" height="60" as="geometry" />
        </mxCell>
        <mxCell id="8LNskPU4K8F9wqnniEPM-11" value="SearchPage" style="rounded=0;whiteSpace=wrap;html=1;fillColor=#fff2cc;strokeColor=#d6b656;" vertex="1" parent="1">
          <mxGeometry x="350" y="350" width="120" height="60" as="geometry" />
        </mxCell>
        <mxCell id="8LNskPU4K8F9wqnniEPM-14" value="UpdateVersion" style="rounded=0;whiteSpace=wrap;html=1;fillColor=#f5f5f5;fontColor=#333333;strokeColor=#666666;" vertex="1" parent="1">
          <mxGeometry x="370" y="230" width="120" height="60" as="geometry" />
        </mxCell>
        <mxCell id="8LNskPU4K8F9wqnniEPM-16" value="RN" style="text;html=1;align=center;verticalAlign=middle;resizable=0;points=[];autosize=1;strokeColor=none;fillColor=none;" vertex="1" parent="1">
          <mxGeometry x="50" y="600" width="40" height="30" as="geometry" />
        </mxCell>
        <mxCell id="8LNskPU4K8F9wqnniEPM-17" value="Webview" style="whiteSpace=wrap;html=1;fillColor=#dae8fc;strokeColor=#6c8ebf;" vertex="1" parent="1">
          <mxGeometry x="215" y="640" width="120" height="60" as="geometry" />
        </mxCell>
        <mxCell id="8LNskPU4K8F9wqnniEPM-19" value="Render Contain" style="text;html=1;align=center;verticalAlign=middle;resizable=0;points=[];autosize=1;strokeColor=none;fillColor=none;" vertex="1" parent="1">
          <mxGeometry x="160" y="570" width="110" height="30" as="geometry" />
        </mxCell>
        <mxCell id="8LNskPU4K8F9wqnniEPM-21" value="" style="rounded=0;whiteSpace=wrap;html=1;" vertex="1" parent="1">
          <mxGeometry x="50" y="770" width="500" height="120" as="geometry" />
        </mxCell>
        <mxCell id="8LNskPU4K8F9wqnniEPM-22" value="Native" style="text;html=1;align=center;verticalAlign=middle;resizable=0;points=[];autosize=1;strokeColor=none;fillColor=none;" vertex="1" parent="1">
          <mxGeometry x="50" y="770" width="60" height="30" as="geometry" />
        </mxCell>
        <mxCell id="8LNskPU4K8F9wqnniEPM-24" style="edgeStyle=orthogonalEdgeStyle;rounded=0;orthogonalLoop=1;jettySize=auto;html=1;" edge="1" parent="1" source="8LNskPU4K8F9wqnniEPM-23" target="8LNskPU4K8F9wqnniEPM-17">
          <mxGeometry relative="1" as="geometry">
            <Array as="points">
              <mxPoint x="275" y="770" />
              <mxPoint x="275" y="770" />
            </Array>
          </mxGeometry>
        </mxCell>
        <mxCell id="8LNskPU4K8F9wqnniEPM-23" value="GAWebview" style="whiteSpace=wrap;html=1;fillColor=#d5e8d4;strokeColor=#82b366;" vertex="1" parent="1">
          <mxGeometry x="240" y="810" width="150" height="60" as="geometry" />
        </mxCell>
        <mxCell id="8LNskPU4K8F9wqnniEPM-26" value="" style="endArrow=none;dashed=1;html=1;rounded=0;" edge="1" parent="1">
          <mxGeometry width="50" height="50" relative="1" as="geometry">
            <mxPoint x="600" y="150" as="sourcePoint" />
            <mxPoint x="600" y="900" as="targetPoint" />
          </mxGeometry>
        </mxCell>
        <mxCell id="8LNskPU4K8F9wqnniEPM-27" value="" style="rounded=0;whiteSpace=wrap;html=1;fillColor=#e1d5e7;strokeColor=#9673a6;" vertex="1" parent="1">
          <mxGeometry x="660" y="180" width="120" height="710" as="geometry" />
        </mxCell>
        <mxCell id="8LNskPU4K8F9wqnniEPM-28" value="BE" style="text;html=1;align=center;verticalAlign=middle;resizable=0;points=[];autosize=1;strokeColor=none;fillColor=none;" vertex="1" parent="1">
          <mxGeometry x="700" y="520" width="40" height="30" as="geometry" />
        </mxCell>
        <mxCell id="8LNskPU4K8F9wqnniEPM-29" value="" style="shape=flexArrow;endArrow=classic;html=1;rounded=0;exitX=-0.008;exitY=0.206;exitDx=0;exitDy=0;exitPerimeter=0;entryX=1;entryY=0.389;entryDx=0;entryDy=0;entryPerimeter=0;" edge="1" parent="1" source="8LNskPU4K8F9wqnniEPM-27" target="8LNskPU4K8F9wqnniEPM-1">
          <mxGeometry width="50" height="50" relative="1" as="geometry">
            <mxPoint x="600" y="120" as="sourcePoint" />
            <mxPoint x="650" y="70" as="targetPoint" />
          </mxGeometry>
        </mxCell>
        <mxCell id="8LNskPU4K8F9wqnniEPM-30" value="" style="endArrow=none;dashed=1;html=1;rounded=0;" edge="1" parent="1">
          <mxGeometry width="50" height="50" relative="1" as="geometry">
            <mxPoint x="827" y="880" as="sourcePoint" />
            <mxPoint x="827" y="160" as="targetPoint" />
          </mxGeometry>
        </mxCell>
        <mxCell id="8LNskPU4K8F9wqnniEPM-31" value="Admin Portal" style="rounded=0;whiteSpace=wrap;html=1;fillColor=#f8cecc;strokeColor=#b85450;" vertex="1" parent="1">
          <mxGeometry x="880" y="180" width="120" height="710" as="geometry" />
        </mxCell>
        <mxCell id="8LNskPU4K8F9wqnniEPM-32" value="" style="shape=flexArrow;endArrow=classic;html=1;rounded=0;exitX=-0.008;exitY=0.544;exitDx=0;exitDy=0;exitPerimeter=0;entryX=0.992;entryY=0.544;entryDx=0;entryDy=0;entryPerimeter=0;" edge="1" parent="1" source="8LNskPU4K8F9wqnniEPM-31" target="8LNskPU4K8F9wqnniEPM-27">
          <mxGeometry width="50" height="50" relative="1" as="geometry">
            <mxPoint x="910" y="540" as="sourcePoint" />
            <mxPoint x="960" y="490" as="targetPoint" />
          </mxGeometry>
        </mxCell>
        <mxCell id="8LNskPU4K8F9wqnniEPM-33" value="" style="endArrow=classic;dashed=1;html=1;rounded=0;entryX=0.44;entryY=0.017;entryDx=0;entryDy=0;startArrow=classic;startFill=1;endFill=1;exitX=0.75;exitY=1;exitDx=0;exitDy=0;entryPerimeter=0;" edge="1" parent="1" source="8LNskPU4K8F9wqnniEPM-17" target="8LNskPU4K8F9wqnniEPM-23">
          <mxGeometry width="50" height="50" relative="1" as="geometry">
            <mxPoint x="390" y="560" as="sourcePoint" />
            <mxPoint x="440" y="570" as="targetPoint" />
          </mxGeometry>
        </mxCell>
        <mxCell id="8LNskPU4K8F9wqnniEPM-34" value="JsBradge" style="edgeLabel;html=1;align=center;verticalAlign=middle;resizable=0;points=[];" vertex="1" connectable="0" parent="8LNskPU4K8F9wqnniEPM-33">
          <mxGeometry x="-0.2263" y="-1" relative="1" as="geometry">
            <mxPoint as="offset" />
          </mxGeometry>
        </mxCell>
      </root>
    </mxGraphModel>
  </diagram>
</mxfile>
